<svg width="1024" height="512" viewBox="0 0 1024 512" fill="none" xmlns="http://www.w3.org/2000/svg">
<rect width="1024" height="512" fill="url(#paint0_linear_1_6)"/>
<path d="M87.8 134V76H67.4V64H121.4V76H101V134H87.8ZM145.014 135.4C140.081 135.4 135.647 134.4 131.714 132.4C127.781 130.4 124.681 127.5 122.414 123.7C120.147 119.9 119.014 115.333 119.014 110V108.4C119.014 103.067 120.147 98.5 122.414 94.7C124.681 90.9 127.781 88 131.714 86C135.647 84 140.081 83 145.014 83C149.947 83 154.381 84 158.314 86C162.247 88 165.347 90.9 167.614 94.7C169.881 98.5 171.014 103.067 171.014 108.4V110C171.014 115.333 169.881 119.9 167.614 123.7C165.347 127.5 162.247 130.4 158.314 132.4C154.381 134.4 149.947 135.4 145.014 135.4ZM145.014 124.2C148.881 124.2 152.081 122.967 154.614 120.5C157.147 117.967 158.414 114.367 158.414 109.7V108.7C158.414 104.033 157.147 100.467 154.614 98C152.147 95.4667 148.947 94.2 145.014 94.2C141.147 94.2 137.947 95.4667 135.414 98C132.881 100.467 131.614 104.033 131.614 108.7V109.7C131.614 114.367 132.881 117.967 135.414 120.5C137.947 122.967 141.147 124.2 145.014 124.2ZM182.645 134V84.4H195.045V90H196.845C197.578 88 198.778 86.5333 200.445 85.6C202.178 84.6667 204.178 84.2 206.445 84.2H212.445V95.4H206.245C203.045 95.4 200.411 96.2667 198.345 98C196.278 99.6667 195.245 102.267 195.245 105.8V134H182.645ZM241.293 134C238.026 134 235.36 133 233.293 131C231.293 128.933 230.293 126.2 230.293 122.8V94.8H217.893V84.4H230.293V69H242.893V84.4H256.493V94.8H242.893V120.6C242.893 122.6 243.826 123.6 245.693 123.6H255.293V134H241.293ZM289.741 135.4C284.807 135.4 280.374 134.4 276.441 132.4C272.507 130.4 269.407 127.5 267.141 123.7C264.874 119.9 263.741 115.333 263.741 110V108.4C263.741 103.067 264.874 98.5 267.141 94.7C269.407 90.9 272.507 88 276.441 86C280.374 84 284.807 83 289.741 83C294.674 83 299.107 84 303.041 86C306.974 88 310.074 90.9 312.341 94.7C314.607 98.5 315.741 103.067 315.741 108.4V110C315.741 115.333 314.607 119.9 312.341 123.7C310.074 127.5 306.974 130.4 303.041 132.4C299.107 134.4 294.674 135.4 289.741 135.4ZM289.741 124.2C293.607 124.2 296.807 122.967 299.341 120.5C301.874 117.967 303.141 114.367 303.141 109.7V108.7C303.141 104.033 301.874 100.467 299.341 98C296.874 95.4667 293.674 94.2 289.741 94.2C285.874 94.2 282.674 95.4667 280.141 98C277.607 100.467 276.341 104.033 276.341 108.7V109.7C276.341 114.367 277.607 117.967 280.141 120.5C282.674 122.967 285.874 124.2 289.741 124.2ZM327.371 134V84.4H339.971V134H327.371ZM333.671 78.6C331.404 78.6 329.471 77.8667 327.871 76.4C326.338 74.9333 325.571 73 325.571 70.6C325.571 68.2 326.338 66.2667 327.871 64.8C329.471 63.3333 331.404 62.6 333.671 62.6C336.004 62.6 337.938 63.3333 339.471 64.8C341.004 66.2667 341.771 68.2 341.771 70.6C341.771 73 341.004 74.9333 339.471 76.4C337.938 77.8667 336.004 78.6 333.671 78.6ZM374.534 135.4C368.067 135.4 362.767 134 358.634 131.2C354.5 128.4 352 124.4 351.134 119.2L362.734 116.2C363.2 118.533 363.967 120.367 365.034 121.7C366.167 123.033 367.534 124 369.134 124.6C370.8 125.133 372.6 125.4 374.534 125.4C377.467 125.4 379.634 124.9 381.034 123.9C382.434 122.833 383.134 121.533 383.134 120C383.134 118.467 382.467 117.3 381.134 116.5C379.8 115.633 377.667 114.933 374.734 114.4L371.934 113.9C368.467 113.233 365.3 112.333 362.434 111.2C359.567 110 357.267 108.367 355.534 106.3C353.8 104.233 352.934 101.567 352.934 98.3C352.934 93.3667 354.734 89.6 358.334 87C361.934 84.3333 366.667 83 372.534 83C378.067 83 382.667 84.2333 386.334 86.7C390 89.1667 392.4 92.4 393.534 96.4L381.834 100C381.3 97.4667 380.2 95.6667 378.534 94.6C376.934 93.5333 374.934 93 372.534 93C370.134 93 368.3 93.4333 367.034 94.3C365.767 95.1 365.134 96.2333 365.134 97.7C365.134 99.3 365.8 100.5 367.134 101.3C368.467 102.033 370.267 102.6 372.534 103L375.334 103.5C379.067 104.167 382.434 105.067 385.434 106.2C388.5 107.267 390.9 108.833 392.634 110.9C394.434 112.9 395.334 115.633 395.334 119.1C395.334 124.3 393.434 128.333 389.634 131.2C385.9 134 380.867 135.4 374.534 135.4ZM428.975 135.4C424.042 135.4 419.675 134.367 415.875 132.3C412.142 130.167 409.208 127.2 407.075 123.4C405.008 119.533 403.975 115 403.975 109.8V108.6C403.975 103.4 405.008 98.9 407.075 95.1C409.142 91.2333 412.042 88.2667 415.775 86.2C419.508 84.0667 423.842 83 428.775 83C433.642 83 437.875 84.1 441.475 86.3C445.075 88.4333 447.875 91.4333 449.875 95.3C451.875 99.1 452.875 103.533 452.875 108.6V112.9H416.775C416.908 116.3 418.175 119.067 420.575 121.2C422.975 123.333 425.908 124.4 429.375 124.4C432.908 124.4 435.508 123.633 437.175 122.1C438.842 120.567 440.108 118.867 440.975 117L451.275 122.4C450.342 124.133 448.975 126.033 447.175 128.1C445.442 130.1 443.108 131.833 440.175 133.3C437.242 134.7 433.508 135.4 428.975 135.4ZM416.875 103.5H440.075C439.808 100.633 438.642 98.3333 436.575 96.6C434.575 94.8667 431.942 94 428.675 94C425.275 94 422.575 94.8667 420.575 96.6C418.575 98.3333 417.342 100.633 416.875 103.5ZM502.253 134V76H481.853V64H535.853V76H515.453V134H502.253ZM561.042 134V76H540.642V64H594.642V76H574.242V134H561.042ZM626.759 135.4C621.359 135.4 616.593 134.433 612.459 132.5C608.326 130.567 605.093 127.8 602.759 124.2C600.426 120.6 599.259 116.267 599.259 111.2V108.4H612.259V111.2C612.259 115.4 613.559 118.567 616.159 120.7C618.759 122.767 622.293 123.8 626.759 123.8C631.293 123.8 634.659 122.9 636.859 121.1C639.126 119.3 640.259 117 640.259 114.2C640.259 112.267 639.693 110.7 638.559 109.5C637.493 108.3 635.893 107.333 633.759 106.6C631.693 105.8 629.159 105.067 626.159 104.4L623.859 103.9C619.059 102.833 614.926 101.5 611.459 99.9C608.059 98.2333 605.426 96.0667 603.559 93.4C601.759 90.7333 600.859 87.2667 600.859 83C600.859 78.7333 601.859 75.1 603.859 72.1C605.926 69.0333 608.793 66.7 612.459 65.1C616.193 63.4333 620.559 62.6 625.559 62.6C630.559 62.6 634.993 63.4667 638.859 65.2C642.793 66.8667 645.859 69.4 648.059 72.8C650.326 76.1333 651.459 80.3333 651.459 85.4V88.4H638.459V85.4C638.459 82.7333 637.926 80.6 636.859 79C635.859 77.3333 634.393 76.1333 632.459 75.4C630.526 74.6 628.226 74.2 625.559 74.2C621.559 74.2 618.593 74.9667 616.659 76.5C614.793 77.9667 613.859 80 613.859 82.6C613.859 84.3333 614.293 85.8 615.159 87C616.093 88.2 617.459 89.2 619.259 90C621.059 90.8 623.359 91.5 626.159 92.1L628.459 92.6C633.459 93.6667 637.793 95.0333 641.459 96.7C645.193 98.3667 648.093 100.567 650.159 103.3C652.226 106.033 653.259 109.533 653.259 113.8C653.259 118.067 652.159 121.833 649.959 125.1C647.826 128.3 644.759 130.833 640.759 132.7C636.826 134.5 632.159 135.4 626.759 135.4ZM712.695 135.4C707.895 135.4 703.528 134.333 699.595 132.2C695.728 130 692.628 126.833 690.295 122.7C688.028 118.5 686.895 113.4 686.895 107.4V90.6C686.895 81.6 689.428 74.7 694.495 69.9C699.561 65.0333 706.428 62.6 715.095 62.6C723.695 62.6 730.328 64.9 734.995 69.5C739.728 74.0333 742.095 80.2 742.095 88V88.4H729.095V87.6C729.095 85.1333 728.561 82.9 727.495 80.9C726.495 78.9 724.961 77.3333 722.895 76.2C720.828 75 718.228 74.4 715.095 74.4C710.428 74.4 706.761 75.8333 704.095 78.7C701.428 81.5667 700.095 85.4667 700.095 90.4V107.6C700.095 112.467 701.428 116.4 704.095 119.4C706.761 122.333 710.495 123.8 715.295 123.8C720.095 123.8 723.595 122.533 725.795 120C727.995 117.467 729.095 114.267 729.095 110.4V109.4H712.495V98.2H742.095V134H729.895V127.3H728.095C727.628 128.433 726.861 129.633 725.795 130.9C724.795 132.167 723.261 133.233 721.195 134.1C719.128 134.967 716.295 135.4 712.695 135.4ZM774.005 134.8C770.139 134.8 766.739 133.933 763.805 132.2C760.939 130.4 758.705 127.933 757.105 124.8C755.505 121.667 754.705 118.067 754.705 114V84.4H767.305V113C767.305 116.733 768.205 119.533 770.005 121.4C771.872 123.267 774.505 124.2 777.905 124.2C781.772 124.2 784.772 122.933 786.905 120.4C789.039 117.8 790.105 114.2 790.105 109.6V84.4H802.705V134H790.305V127.5H788.505C787.705 129.167 786.205 130.8 784.005 132.4C781.805 134 778.472 134.8 774.005 134.8ZM816.727 134V84.4H829.327V134H816.727ZM823.027 78.6C820.76 78.6 818.827 77.8667 817.227 76.4C815.693 74.9333 814.927 73 814.927 70.6C814.927 68.2 815.693 66.2667 817.227 64.8C818.827 63.3333 820.76 62.6 823.027 62.6C825.36 62.6 827.293 63.3333 828.827 64.8C830.36 66.2667 831.127 68.2 831.127 70.6C831.127 73 830.36 74.9333 828.827 76.4C827.293 77.8667 825.36 78.6 823.027 78.6ZM863.289 135.4C859.356 135.4 855.656 134.433 852.189 132.5C848.789 130.5 846.056 127.6 843.989 123.8C841.922 120 840.889 115.4 840.889 110V108.4C840.889 103 841.922 98.4 843.989 94.6C846.056 90.8 848.789 87.9333 852.189 86C855.589 84 859.289 83 863.289 83C866.289 83 868.789 83.3667 870.789 84.1C872.856 84.7667 874.522 85.6333 875.789 86.7C877.056 87.7667 878.022 88.9 878.689 90.1H880.489V64H893.089V134H880.689V128H878.889C877.756 129.867 875.989 131.567 873.589 133.1C871.256 134.633 867.822 135.4 863.289 135.4ZM867.089 124.4C870.956 124.4 874.189 123.167 876.789 120.7C879.389 118.167 880.689 114.5 880.689 109.7V108.7C880.689 103.9 879.389 100.267 876.789 97.8C874.256 95.2667 871.022 94 867.089 94C863.222 94 859.989 95.2667 857.389 97.8C854.789 100.267 853.489 103.9 853.489 108.7V109.7C853.489 114.5 854.789 118.167 857.389 120.7C859.989 123.167 863.222 124.4 867.089 124.4ZM929.659 135.4C924.725 135.4 920.359 134.367 916.559 132.3C912.825 130.167 909.892 127.2 907.759 123.4C905.692 119.533 904.659 115 904.659 109.8V108.6C904.659 103.4 905.692 98.9 907.759 95.1C909.825 91.2333 912.725 88.2667 916.459 86.2C920.192 84.0667 924.525 83 929.459 83C934.325 83 938.559 84.1 942.159 86.3C945.759 88.4333 948.559 91.4333 950.559 95.3C952.559 99.1 953.559 103.533 953.559 108.6V112.9H917.459C917.592 116.3 918.859 119.067 921.259 121.2C923.659 123.333 926.592 124.4 930.059 124.4C933.592 124.4 936.192 123.633 937.859 122.1C939.525 120.567 940.792 118.867 941.659 117L951.959 122.4C951.025 124.133 949.659 126.033 947.859 128.1C946.125 130.1 943.792 131.833 940.859 133.3C937.925 134.7 934.192 135.4 929.659 135.4ZM917.559 103.5H940.759C940.492 100.633 939.325 98.3333 937.259 96.6C935.259 94.8667 932.625 94 929.359 94C925.959 94 923.259 94.8667 921.259 96.6C919.259 98.3333 918.025 100.633 917.559 103.5Z" fill="white"/>
<path d="M187.058 256V211.2H214.642V216.064H192.434V231.04H212.85V235.904H192.434V251.136H214.962V256H187.058ZM232.912 256.896C230.736 256.896 228.752 256.512 226.96 255.744C225.168 254.976 223.76 253.867 222.736 252.416C221.712 250.965 221.2 249.195 221.2 247.104C221.2 244.971 221.712 243.221 222.736 241.856C223.76 240.448 225.168 239.403 226.96 238.72C228.752 237.995 230.757 237.632 232.976 237.632H243.536V235.328C243.536 233.109 242.875 231.36 241.552 230.08C240.272 228.8 238.352 228.16 235.792 228.16C233.275 228.16 231.312 228.779 229.904 230.016C228.496 231.211 227.536 232.832 227.024 234.88L222.288 233.344C222.8 231.595 223.611 230.016 224.72 228.608C225.829 227.157 227.301 226.005 229.136 225.152C231.013 224.256 233.253 223.808 235.856 223.808C239.867 223.808 242.981 224.853 245.2 226.944C247.419 228.992 248.528 231.893 248.528 235.648V249.792C248.528 251.072 249.125 251.712 250.32 251.712H253.2V256H248.784C247.376 256 246.245 255.616 245.392 254.848C244.539 254.037 244.112 252.971 244.112 251.648V251.328H243.344C242.875 252.139 242.235 252.992 241.424 253.888C240.656 254.741 239.589 255.445 238.224 256C236.859 256.597 235.088 256.896 232.912 256.896ZM233.488 252.544C236.475 252.544 238.885 251.669 240.72 249.92C242.597 248.128 243.536 245.632 243.536 242.432V241.728H233.168C231.163 241.728 229.499 242.176 228.176 243.072C226.896 243.925 226.256 245.227 226.256 246.976C226.256 248.725 226.917 250.091 228.24 251.072C229.605 252.053 231.355 252.544 233.488 252.544ZM272.483 256.896C268.6 256.896 265.315 256 262.627 254.208C259.981 252.416 258.381 249.579 257.827 245.696L262.627 244.608C262.968 246.656 263.608 248.277 264.547 249.472C265.485 250.624 266.637 251.456 268.003 251.968C269.411 252.437 270.904 252.672 272.483 252.672C274.829 252.672 276.685 252.203 278.051 251.264C279.416 250.325 280.099 249.067 280.099 247.488C280.099 245.867 279.437 244.736 278.115 244.096C276.835 243.413 275.064 242.859 272.803 242.432L270.179 241.984C268.173 241.643 266.339 241.109 264.675 240.384C263.011 239.659 261.688 238.677 260.707 237.44C259.725 236.203 259.235 234.645 259.235 232.768C259.235 229.952 260.323 227.755 262.499 226.176C264.675 224.597 267.555 223.808 271.139 223.808C274.68 223.808 277.539 224.619 279.715 226.24C281.933 227.819 283.363 230.059 284.003 232.96L279.267 234.176C278.883 231.915 277.965 230.336 276.515 229.44C275.064 228.501 273.272 228.032 271.139 228.032C269.005 228.032 267.32 228.437 266.083 229.248C264.845 230.016 264.227 231.168 264.227 232.704C264.227 234.197 264.803 235.307 265.955 236.032C267.149 236.715 268.728 237.227 270.691 237.568L273.315 238.016C275.533 238.4 277.517 238.933 279.267 239.616C281.059 240.256 282.467 241.195 283.491 242.432C284.557 243.669 285.091 245.291 285.091 247.296C285.091 250.368 283.939 252.736 281.635 254.4C279.373 256.064 276.323 256.896 272.483 256.896ZM293.625 256V224.704H298.681V256H293.625ZM296.185 219.84C295.075 219.84 294.137 219.477 293.369 218.752C292.643 218.027 292.281 217.109 292.281 216C292.281 214.848 292.643 213.909 293.369 213.184C294.137 212.459 295.075 212.096 296.185 212.096C297.294 212.096 298.211 212.459 298.937 213.184C299.662 213.909 300.025 214.848 300.025 216C300.025 217.109 299.662 218.027 298.937 218.752C298.211 219.477 297.294 219.84 296.185 219.84ZM309.312 256V211.2H314.368V256H309.312ZM328.776 268.8V264.32H346.696C347.933 264.32 348.552 263.68 348.552 262.4V251.008H347.656C347.229 251.904 346.568 252.8 345.672 253.696C344.818 254.549 343.688 255.253 342.28 255.808C340.872 256.32 339.101 256.576 336.968 256.576C334.706 256.576 332.616 256.085 330.696 255.104C328.818 254.123 327.325 252.672 326.216 250.752C325.149 248.832 324.616 246.485 324.616 243.712V224.704H329.672V243.328C329.672 246.4 330.44 248.64 331.976 250.048C333.554 251.456 335.666 252.16 338.312 252.16C341.298 252.16 343.752 251.179 345.672 249.216C347.592 247.253 348.552 244.331 348.552 240.448V224.704H353.608V263.296C353.608 265.003 353.117 266.347 352.136 267.328C351.197 268.309 349.81 268.8 347.976 268.8H328.776ZM380.625 256V224.704H385.553V228.544H386.449C387.003 227.179 387.857 226.176 389.009 225.536C390.161 224.896 391.675 224.576 393.553 224.576H397.265V229.184H393.233C390.971 229.184 389.137 229.824 387.729 231.104C386.363 232.341 385.681 234.283 385.681 236.928V256H380.625ZM416.718 256.576C414.456 256.576 412.366 256.085 410.446 255.104C408.568 254.123 407.075 252.672 405.966 250.752C404.899 248.789 404.366 246.421 404.366 243.648V224.704H409.422V243.264C409.422 246.379 410.19 248.64 411.726 250.048C413.304 251.456 415.416 252.16 418.062 252.16C421.048 252.16 423.502 251.179 425.422 249.216C427.342 247.253 428.302 244.331 428.302 240.448V224.704H433.358V256H428.43V250.688H427.534C426.851 252.181 425.678 253.547 424.014 254.784C422.35 255.979 419.918 256.576 416.718 256.576ZM443.937 256V224.704H448.865V230.016H449.761C450.444 228.523 451.596 227.179 453.217 225.984C454.881 224.747 457.313 224.128 460.513 224.128C462.86 224.128 464.95 224.619 466.785 225.6C468.662 226.581 470.156 228.032 471.265 229.952C472.374 231.872 472.929 234.24 472.929 237.056V256H467.873V237.44C467.873 234.325 467.084 232.064 465.505 230.656C463.969 229.248 461.878 228.544 459.233 228.544C456.204 228.544 453.729 229.525 451.809 231.488C449.932 233.451 448.993 236.373 448.993 240.256V256H443.937ZM510.312 256C507.838 256 505.598 255.531 503.593 254.592C501.587 253.653 500.009 252.309 498.857 250.56C497.705 248.811 497.129 246.677 497.129 244.16C497.129 242.283 497.491 240.64 498.217 239.232C498.942 237.824 499.881 236.672 501.033 235.776C502.227 234.837 503.486 234.133 504.809 233.664V232.96C502.846 232.363 501.139 231.275 499.689 229.696C498.238 228.075 497.513 225.877 497.513 223.104C497.513 220.544 498.11 218.368 499.305 216.576C500.499 214.784 502.078 213.44 504.041 212.544C506.003 211.648 508.179 211.2 510.569 211.2H518.633V215.552H511.208C508.819 215.552 506.793 216.213 505.129 217.536C503.507 218.816 502.697 220.779 502.697 223.424C502.697 225.216 503.081 226.688 503.849 227.84C504.659 228.992 505.705 229.845 506.985 230.4C508.265 230.912 509.673 231.168 511.208 231.168H520.041V224.32H525.097V231.168H531.369V235.584H525.097V256H510.312ZM510.953 251.648H520.041V235.584H510.953C508.521 235.584 506.451 236.245 504.745 237.568C503.081 238.848 502.249 240.853 502.249 243.584C502.249 246.315 503.102 248.341 504.809 249.664C506.558 250.987 508.606 251.648 510.953 251.648ZM560.831 256V229.12H551.231V224.704H560.831V216.704C560.831 214.997 561.3 213.653 562.239 212.672C563.22 211.691 564.607 211.2 566.399 211.2H574.079V215.552H567.807C566.527 215.552 565.887 216.192 565.887 217.472V224.704H581.439V229.12H565.887V256H560.831ZM581.439 256V224.704H586.495V256H581.439ZM583.935 219.904C582.868 219.904 581.951 219.541 581.183 218.816C580.458 218.091 580.095 217.173 580.095 216.064C580.095 214.912 580.458 213.995 581.183 213.312C581.951 212.587 582.868 212.224 583.935 212.224C585.087 212.224 586.026 212.587 586.751 213.312C587.476 213.995 587.839 214.912 587.839 216.064C587.839 217.173 587.476 218.091 586.751 218.816C586.026 219.541 585.087 219.904 583.935 219.904ZM597.125 256V224.704H602.053V230.016H602.949C603.631 228.523 604.783 227.179 606.405 225.984C608.069 224.747 610.501 224.128 613.701 224.128C616.047 224.128 618.138 224.619 619.973 225.6C621.85 226.581 623.343 228.032 624.453 229.952C625.562 231.872 626.117 234.24 626.117 237.056V256H621.061V237.44C621.061 234.325 620.271 232.064 618.693 230.656C617.157 229.248 615.066 228.544 612.421 228.544C609.391 228.544 606.917 229.525 604.997 231.488C603.119 233.451 602.181 236.373 602.181 240.256V256H597.125ZM650.711 256.896C647.553 256.896 644.78 256.235 642.391 254.912C640.001 253.547 638.145 251.648 636.823 249.216C635.5 246.784 634.839 243.968 634.839 240.768V240C634.839 236.757 635.5 233.92 636.823 231.488C638.145 229.056 639.98 227.179 642.327 225.856C644.673 224.491 647.361 223.808 650.391 223.808C653.335 223.808 655.937 224.448 658.199 225.728C660.46 226.965 662.231 228.757 663.511 231.104C664.791 233.451 665.431 236.203 665.431 239.36V241.664H639.895C640.023 245.035 641.111 247.68 643.159 249.6C645.207 251.477 647.767 252.416 650.839 252.416C653.527 252.416 655.596 251.797 657.047 250.56C658.497 249.323 659.607 247.851 660.375 246.144L664.727 248.256C664.087 249.579 663.191 250.901 662.039 252.224C660.929 253.547 659.457 254.656 657.623 255.552C655.831 256.448 653.527 256.896 650.711 256.896ZM639.959 237.504H660.311C660.14 234.603 659.137 232.341 657.303 230.72C655.511 229.099 653.207 228.288 650.391 228.288C647.532 228.288 645.185 229.099 643.351 230.72C641.516 232.341 640.385 234.603 639.959 237.504ZM673.994 241.856V237.184H692.938V241.856H673.994ZM713.145 256C711.353 256 709.966 255.509 708.985 254.528C708.046 253.547 707.577 252.203 707.577 250.496V229.12H698.169V224.704H707.577V213.568H712.633V224.704H722.873V229.12H712.633V249.728C712.633 251.008 713.251 251.648 714.489 251.648H721.465V256H713.145ZM743.03 256.576C740.769 256.576 738.678 256.085 736.758 255.104C734.881 254.123 733.387 252.672 732.278 250.752C731.211 248.789 730.678 246.421 730.678 243.648V224.704H735.734V243.264C735.734 246.379 736.502 248.64 738.038 250.048C739.617 251.456 741.729 252.16 744.374 252.16C747.361 252.16 749.814 251.179 751.734 249.216C753.654 247.253 754.614 244.331 754.614 240.448V224.704H759.67V256H754.742V250.688H753.846C753.163 252.181 751.99 253.547 750.326 254.784C748.662 255.979 746.23 256.576 743.03 256.576ZM770.25 256V224.704H775.178V230.016H776.074C776.756 228.523 777.908 227.179 779.53 225.984C781.194 224.747 783.626 224.128 786.826 224.128C789.172 224.128 791.263 224.619 793.098 225.6C794.975 226.581 796.468 228.032 797.578 229.952C798.687 231.872 799.242 234.24 799.242 237.056V256H794.186V237.44C794.186 234.325 793.396 232.064 791.818 230.656C790.282 229.248 788.191 228.544 785.546 228.544C782.516 228.544 780.042 229.525 778.122 231.488C776.244 233.451 775.306 236.373 775.306 240.256V256H770.25ZM823.836 256.896C820.678 256.896 817.905 256.235 815.516 254.912C813.126 253.547 811.27 251.648 809.948 249.216C808.625 246.784 807.964 243.968 807.964 240.768V240C807.964 236.757 808.625 233.92 809.948 231.488C811.27 229.056 813.105 227.179 815.452 225.856C817.798 224.491 820.486 223.808 823.516 223.808C826.46 223.808 829.062 224.448 831.324 225.728C833.585 226.965 835.356 228.757 836.636 231.104C837.916 233.451 838.556 236.203 838.556 239.36V241.664H813.02C813.148 245.035 814.236 247.68 816.284 249.6C818.332 251.477 820.892 252.416 823.964 252.416C826.652 252.416 828.721 251.797 830.172 250.56C831.622 249.323 832.732 247.851 833.5 246.144L837.852 248.256C837.212 249.579 836.316 250.901 835.164 252.224C834.054 253.547 832.582 254.656 830.748 255.552C828.956 256.448 826.652 256.896 823.836 256.896ZM813.084 237.504H833.436C833.265 234.603 832.262 232.341 830.428 230.72C828.636 229.099 826.332 228.288 823.516 228.288C820.657 228.288 818.31 229.099 816.476 230.72C814.641 232.341 813.51 234.603 813.084 237.504ZM147.253 338V298.064H132.853V293.2H167.029V298.064H152.629V338H147.253ZM182.151 338.896C178.994 338.896 176.199 338.235 173.767 336.912C171.378 335.589 169.5 333.733 168.135 331.344C166.812 328.912 166.151 326.053 166.151 322.768V321.936C166.151 318.693 166.812 315.856 168.135 313.424C169.5 310.992 171.378 309.115 173.767 307.792C176.199 306.469 178.994 305.808 182.151 305.808C185.308 305.808 188.082 306.469 190.471 307.792C192.903 309.115 194.78 310.992 196.103 313.424C197.468 315.856 198.151 318.693 198.151 321.936V322.768C198.151 326.053 197.468 328.912 196.103 331.344C194.78 333.733 192.903 335.589 190.471 336.912C188.082 338.235 185.308 338.896 182.151 338.896ZM182.151 334.352C185.479 334.352 188.124 333.307 190.087 331.216C192.092 329.083 193.095 326.224 193.095 322.64V322.064C193.095 318.48 192.092 315.643 190.087 313.552C188.124 311.419 185.479 310.352 182.151 310.352C178.866 310.352 176.22 311.419 174.215 313.552C172.21 315.643 171.207 318.48 171.207 322.064V322.64C171.207 326.224 172.21 329.083 174.215 331.216C176.22 333.307 178.866 334.352 182.151 334.352ZM207.25 338V306.704H212.178V310.544H213.074C213.628 309.179 214.482 308.176 215.634 307.536C216.786 306.896 218.3 306.576 220.178 306.576H223.89V311.184H219.858C217.596 311.184 215.762 311.824 214.354 313.104C212.988 314.341 212.306 316.283 212.306 318.928V338H207.25ZM242.895 338C241.103 338 239.716 337.509 238.735 336.528C237.796 335.547 237.327 334.203 237.327 332.496V311.12H227.919V306.704H237.327V295.568H242.383V306.704H252.623V311.12H242.383V331.728C242.383 333.008 243.001 333.648 244.239 333.648H251.215V338H242.895ZM274.151 338.896C270.994 338.896 268.199 338.235 265.767 336.912C263.378 335.589 261.5 333.733 260.135 331.344C258.812 328.912 258.151 326.053 258.151 322.768V321.936C258.151 318.693 258.812 315.856 260.135 313.424C261.5 310.992 263.378 309.115 265.767 307.792C268.199 306.469 270.994 305.808 274.151 305.808C277.308 305.808 280.082 306.469 282.471 307.792C284.903 309.115 286.78 310.992 288.103 313.424C289.468 315.856 290.151 318.693 290.151 321.936V322.768C290.151 326.053 289.468 328.912 288.103 331.344C286.78 333.733 284.903 335.589 282.471 336.912C280.082 338.235 277.308 338.896 274.151 338.896ZM274.151 334.352C277.479 334.352 280.124 333.307 282.087 331.216C284.092 329.083 285.095 326.224 285.095 322.64V322.064C285.095 318.48 284.092 315.643 282.087 313.552C280.124 311.419 277.479 310.352 274.151 310.352C270.866 310.352 268.22 311.419 266.215 313.552C264.21 315.643 263.207 318.48 263.207 322.064V322.64C263.207 326.224 264.21 329.083 266.215 331.216C268.22 333.307 270.866 334.352 274.151 334.352ZM299.25 338V306.704H304.306V338H299.25ZM301.81 301.84C300.7 301.84 299.762 301.477 298.994 300.752C298.268 300.027 297.906 299.109 297.906 298C297.906 296.848 298.268 295.909 298.994 295.184C299.762 294.459 300.7 294.096 301.81 294.096C302.919 294.096 303.836 294.459 304.562 295.184C305.287 295.909 305.65 296.848 305.65 298C305.65 299.109 305.287 300.027 304.562 300.752C303.836 301.477 302.919 301.84 301.81 301.84ZM327.545 338.896C323.662 338.896 320.377 338 317.689 336.208C315.044 334.416 313.444 331.579 312.889 327.696L317.689 326.608C318.03 328.656 318.67 330.277 319.609 331.472C320.548 332.624 321.7 333.456 323.065 333.968C324.473 334.437 325.966 334.672 327.545 334.672C329.892 334.672 331.748 334.203 333.113 333.264C334.478 332.325 335.161 331.067 335.161 329.488C335.161 327.867 334.5 326.736 333.177 326.096C331.897 325.413 330.126 324.859 327.865 324.432L325.241 323.984C323.236 323.643 321.401 323.109 319.737 322.384C318.073 321.659 316.75 320.677 315.769 319.44C314.788 318.203 314.297 316.645 314.297 314.768C314.297 311.952 315.385 309.755 317.561 308.176C319.737 306.597 322.617 305.808 326.201 305.808C329.742 305.808 332.601 306.619 334.777 308.24C336.996 309.819 338.425 312.059 339.065 314.96L334.329 316.176C333.945 313.915 333.028 312.336 331.577 311.44C330.126 310.501 328.334 310.032 326.201 310.032C324.068 310.032 322.382 310.437 321.145 311.248C319.908 312.016 319.289 313.168 319.289 314.704C319.289 316.197 319.865 317.307 321.017 318.032C322.212 318.715 323.79 319.227 325.753 319.568L328.377 320.016C330.596 320.4 332.58 320.933 334.329 321.616C336.121 322.256 337.529 323.195 338.553 324.432C339.62 325.669 340.153 327.291 340.153 329.296C340.153 332.368 339.001 334.736 336.697 336.4C334.436 338.064 331.385 338.896 327.545 338.896ZM363.023 338.896C359.866 338.896 357.092 338.235 354.703 336.912C352.314 335.547 350.458 333.648 349.135 331.216C347.812 328.784 347.151 325.968 347.151 322.768V322C347.151 318.757 347.812 315.92 349.135 313.488C350.458 311.056 352.292 309.179 354.639 307.856C356.986 306.491 359.674 305.808 362.703 305.808C365.647 305.808 368.25 306.448 370.511 307.728C372.772 308.965 374.543 310.757 375.823 313.104C377.103 315.451 377.743 318.203 377.743 321.36V323.664H352.207C352.335 327.035 353.423 329.68 355.471 331.6C357.519 333.477 360.079 334.416 363.151 334.416C365.839 334.416 367.908 333.797 369.359 332.56C370.81 331.323 371.919 329.851 372.687 328.144L377.039 330.256C376.399 331.579 375.503 332.901 374.351 334.224C373.242 335.547 371.77 336.656 369.935 337.552C368.143 338.448 365.839 338.896 363.023 338.896ZM352.271 319.504H372.623C372.452 316.603 371.45 314.341 369.615 312.72C367.823 311.099 365.519 310.288 362.703 310.288C359.844 310.288 357.498 311.099 355.663 312.72C353.828 314.341 352.698 316.603 352.271 319.504ZM412.128 338V298.064H397.728V293.2H431.904V298.064H417.504V338H412.128ZM449.753 338V298.064H435.353V293.2H469.529V298.064H455.129V338H449.753ZM490.157 338.896C486.914 338.896 484.013 338.32 481.453 337.168C478.893 336.016 476.866 334.288 475.373 331.984C473.922 329.637 473.197 326.715 473.197 323.216V321.872H478.509V323.216C478.509 326.928 479.597 329.701 481.773 331.536C483.949 333.328 486.744 334.224 490.157 334.224C493.656 334.224 496.322 333.435 498.157 331.856C499.992 330.277 500.909 328.293 500.909 325.904C500.909 324.24 500.482 322.917 499.629 321.936C498.818 320.955 497.666 320.165 496.173 319.568C494.68 318.928 492.93 318.373 490.925 317.904L487.597 317.072C484.994 316.389 482.69 315.557 480.685 314.576C478.68 313.595 477.101 312.315 475.949 310.736C474.84 309.115 474.285 307.045 474.285 304.528C474.285 302.011 474.904 299.835 476.141 298C477.421 296.165 479.192 294.757 481.453 293.776C483.757 292.795 486.402 292.304 489.389 292.304C492.418 292.304 495.128 292.837 497.517 293.904C499.949 294.928 501.848 296.464 503.213 298.512C504.621 300.517 505.325 303.056 505.325 306.128V308.816H500.013V306.128C500.013 303.952 499.544 302.203 498.605 300.88C497.709 299.557 496.45 298.576 494.829 297.936C493.25 297.296 491.437 296.976 489.389 296.976C486.445 296.976 484.077 297.637 482.285 298.96C480.493 300.24 479.597 302.075 479.597 304.464C479.597 306.043 479.981 307.323 480.749 308.304C481.517 309.285 482.605 310.096 484.013 310.736C485.421 311.333 487.106 311.867 489.069 312.336L492.397 313.168C495 313.723 497.325 314.491 499.373 315.472C501.464 316.411 503.128 317.712 504.365 319.376C505.602 320.997 506.221 323.131 506.221 325.776C506.221 328.421 505.56 330.725 504.237 332.688C502.914 334.651 501.037 336.187 498.605 337.296C496.216 338.363 493.4 338.896 490.157 338.896ZM514.175 346V342.8H516.031C517.567 342.8 518.335 342.032 518.335 340.496V338.448H517.439C516.202 338.448 515.156 338.064 514.303 337.296C513.492 336.528 513.087 335.568 513.087 334.416C513.087 333.179 513.492 332.176 514.303 331.408C515.156 330.64 516.202 330.256 517.439 330.256C518.676 330.256 519.7 330.661 520.511 331.472C521.322 332.283 521.727 333.307 521.727 334.544V340.496C521.727 344.165 519.892 346 516.223 346H514.175ZM549.414 338L543.142 306.704H548.262L553.446 334.608H554.342L561.19 306.704H569.574L576.422 334.608H577.318L582.502 306.704H587.622L581.35 338H572.71L565.798 310.096H564.966L558.054 338H549.414ZM596.312 338V306.704H601.368V338H596.312ZM598.872 301.84C597.763 301.84 596.824 301.477 596.056 300.752C595.331 300.027 594.968 299.109 594.968 298C594.968 296.848 595.331 295.909 596.056 295.184C596.824 294.459 597.763 294.096 598.872 294.096C599.981 294.096 600.899 294.459 601.624 295.184C602.349 295.909 602.712 296.848 602.712 298C602.712 299.109 602.349 300.027 601.624 300.752C600.899 301.477 599.981 301.84 598.872 301.84ZM623.52 338C621.728 338 620.341 337.509 619.36 336.528C618.421 335.547 617.952 334.203 617.952 332.496V311.12H608.544V306.704H617.952V295.568H623.008V306.704H633.248V311.12H623.008V331.728C623.008 333.008 623.626 333.648 624.864 333.648H631.84V338H623.52ZM641.437 338V293.2H646.493V311.696H647.389C647.816 310.757 648.456 309.883 649.309 309.072C650.205 308.219 651.336 307.515 652.701 306.96C654.109 306.405 655.88 306.128 658.013 306.128C660.36 306.128 662.45 306.64 664.285 307.664C666.162 308.645 667.656 310.096 668.765 312.016C669.874 313.893 670.429 316.24 670.429 319.056V338H665.373V319.44C665.373 316.325 664.584 314.064 663.005 312.656C661.469 311.248 659.378 310.544 656.733 310.544C653.704 310.544 651.229 311.525 649.309 313.488C647.432 315.451 646.493 318.373 646.493 322.256V338H641.437ZM697.125 338V293.2H702.181V338H697.125ZM727.276 338.896C724.119 338.896 721.324 338.235 718.892 336.912C716.503 335.589 714.625 333.733 713.26 331.344C711.937 328.912 711.276 326.053 711.276 322.768V321.936C711.276 318.693 711.937 315.856 713.26 313.424C714.625 310.992 716.503 309.115 718.892 307.792C721.324 306.469 724.119 305.808 727.276 305.808C730.433 305.808 733.207 306.469 735.596 307.792C738.028 309.115 739.905 310.992 741.228 313.424C742.593 315.856 743.276 318.693 743.276 321.936V322.768C743.276 326.053 742.593 328.912 741.228 331.344C739.905 333.733 738.028 335.589 735.596 336.912C733.207 338.235 730.433 338.896 727.276 338.896ZM727.276 334.352C730.604 334.352 733.249 333.307 735.212 331.216C737.217 329.083 738.22 326.224 738.22 322.64V322.064C738.22 318.48 737.217 315.643 735.212 313.552C733.249 311.419 730.604 310.352 727.276 310.352C723.991 310.352 721.345 311.419 719.34 313.552C717.335 315.643 716.332 318.48 716.332 322.064V322.64C716.332 326.224 717.335 329.083 719.34 331.216C721.345 333.307 723.991 334.352 727.276 334.352ZM766.775 338.896C763.745 338.896 761.015 338.256 758.583 336.976C756.193 335.653 754.295 333.776 752.887 331.344C751.521 328.912 750.839 326.032 750.839 322.704V322C750.839 318.629 751.521 315.749 752.887 313.36C754.295 310.928 756.193 309.072 758.583 307.792C761.015 306.469 763.745 305.808 766.775 305.808C769.761 305.808 772.3 306.363 774.391 307.472C776.524 308.581 778.188 310.053 779.382 311.888C780.62 313.723 781.409 315.685 781.751 317.776L776.823 318.8C776.609 317.264 776.097 315.856 775.287 314.576C774.519 313.296 773.431 312.272 772.023 311.504C770.615 310.736 768.887 310.352 766.839 310.352C764.748 310.352 762.871 310.821 761.207 311.76C759.585 312.699 758.284 314.043 757.303 315.792C756.364 317.541 755.895 319.632 755.895 322.064V322.64C755.895 325.072 756.364 327.163 757.303 328.912C758.284 330.661 759.585 332.005 761.207 332.944C762.871 333.883 764.748 334.352 766.839 334.352C769.953 334.352 772.321 333.541 773.943 331.92C775.607 330.299 776.631 328.293 777.015 325.904L782.007 326.992C781.537 329.04 780.684 330.981 779.447 332.816C778.209 334.651 776.524 336.123 774.391 337.232C772.3 338.341 769.761 338.896 766.775 338.896ZM800.225 338.896C798.049 338.896 796.065 338.512 794.273 337.744C792.481 336.976 791.073 335.867 790.049 334.416C789.025 332.965 788.513 331.195 788.513 329.104C788.513 326.971 789.025 325.221 790.049 323.856C791.073 322.448 792.481 321.403 794.273 320.72C796.065 319.995 798.07 319.632 800.289 319.632H810.849V317.328C810.849 315.109 810.187 313.36 808.865 312.08C807.585 310.8 805.665 310.16 803.105 310.16C800.587 310.16 798.625 310.779 797.217 312.016C795.809 313.211 794.849 314.832 794.337 316.88L789.601 315.344C790.113 313.595 790.923 312.016 792.033 310.608C793.142 309.157 794.614 308.005 796.449 307.152C798.326 306.256 800.566 305.808 803.169 305.808C807.179 305.808 810.294 306.853 812.513 308.944C814.731 310.992 815.841 313.893 815.841 317.648V331.792C815.841 333.072 816.438 333.712 817.632 333.712H820.513V338H816.097C814.689 338 813.558 337.616 812.705 336.848C811.851 336.037 811.425 334.971 811.425 333.648V333.328H810.657C810.187 334.139 809.547 334.992 808.737 335.888C807.969 336.741 806.902 337.445 805.537 338C804.171 338.597 802.401 338.896 800.225 338.896ZM800.801 334.544C803.787 334.544 806.198 333.669 808.033 331.92C809.91 330.128 810.849 327.632 810.849 324.432V323.728H800.481C798.475 323.728 796.811 324.176 795.489 325.072C794.209 325.925 793.569 327.227 793.569 328.976C793.569 330.725 794.23 332.091 795.553 333.072C796.918 334.053 798.667 334.544 800.801 334.544ZM827.437 338V293.2H832.493V338H827.437ZM870.25 338C867.775 338 865.535 337.531 863.53 336.592C861.525 335.653 859.946 334.309 858.794 332.56C857.642 330.811 857.066 328.677 857.066 326.16C857.066 324.283 857.429 322.64 858.154 321.232C858.879 319.824 859.818 318.672 860.97 317.776C862.165 316.837 863.423 316.133 864.746 315.664V314.96C862.783 314.363 861.077 313.275 859.626 311.696C858.175 310.075 857.45 307.877 857.45 305.104C857.45 302.544 858.047 300.368 859.242 298.576C860.437 296.784 862.015 295.44 863.978 294.544C865.941 293.648 868.117 293.2 870.506 293.2H878.57V297.552H871.146C868.757 297.552 866.73 298.213 865.066 299.536C863.445 300.816 862.634 302.779 862.634 305.424C862.634 307.216 863.018 308.688 863.786 309.84C864.597 310.992 865.642 311.845 866.922 312.4C868.202 312.912 869.61 313.168 871.146 313.168H879.978V306.32H885.034V313.168H891.306V317.584H885.034V338H870.25ZM870.89 333.648H879.978V317.584H870.89C868.458 317.584 866.389 318.245 864.682 319.568C863.018 320.848 862.186 322.853 862.186 325.584C862.186 328.315 863.039 330.341 864.746 331.664C866.495 332.987 868.543 333.648 870.89 333.648ZM242.462 420.896C239.433 420.896 236.702 420.256 234.27 418.976C231.881 417.653 229.982 415.776 228.574 413.344C227.209 410.912 226.526 408.032 226.526 404.704V404C226.526 400.629 227.209 397.749 228.574 395.36C229.982 392.928 231.881 391.072 234.27 389.792C236.702 388.469 239.433 387.808 242.462 387.808C245.449 387.808 247.987 388.363 250.078 389.472C252.211 390.581 253.875 392.053 255.07 393.888C256.307 395.723 257.097 397.685 257.438 399.776L252.51 400.8C252.297 399.264 251.785 397.856 250.974 396.576C250.206 395.296 249.118 394.272 247.71 393.504C246.302 392.736 244.574 392.352 242.526 392.352C240.435 392.352 238.558 392.821 236.894 393.76C235.273 394.699 233.971 396.043 232.99 397.792C232.051 399.541 231.582 401.632 231.582 404.064V404.64C231.582 407.072 232.051 409.163 232.99 410.912C233.971 412.661 235.273 414.005 236.894 414.944C238.558 415.883 240.435 416.352 242.526 416.352C245.641 416.352 248.009 415.541 249.63 413.92C251.294 412.299 252.318 410.293 252.702 407.904L257.694 408.992C257.225 411.04 256.371 412.981 255.134 414.816C253.897 416.651 252.211 418.123 250.078 419.232C247.987 420.341 245.449 420.896 242.462 420.896ZM266.312 420V375.2H271.368V420H266.312ZM296.464 420.896C293.306 420.896 290.512 420.235 288.08 418.912C285.69 417.589 283.813 415.733 282.448 413.344C281.125 410.912 280.464 408.053 280.464 404.768V403.936C280.464 400.693 281.125 397.856 282.448 395.424C283.813 392.992 285.69 391.115 288.08 389.792C290.512 388.469 293.306 387.808 296.464 387.808C299.621 387.808 302.394 388.469 304.784 389.792C307.216 391.115 309.093 392.992 310.416 395.424C311.781 397.856 312.464 400.693 312.464 403.936V404.768C312.464 408.053 311.781 410.912 310.416 413.344C309.093 415.733 307.216 417.589 304.784 418.912C302.394 420.235 299.621 420.896 296.464 420.896ZM296.464 416.352C299.792 416.352 302.437 415.307 304.4 413.216C306.405 411.083 307.408 408.224 307.408 404.64V404.064C307.408 400.48 306.405 397.643 304.4 395.552C302.437 393.419 299.792 392.352 296.464 392.352C293.178 392.352 290.533 393.419 288.528 395.552C286.522 397.643 285.52 400.48 285.52 404.064V404.64C285.52 408.224 286.522 411.083 288.528 413.216C290.533 415.307 293.178 416.352 296.464 416.352ZM333.53 420.576C331.269 420.576 329.178 420.085 327.258 419.104C325.381 418.123 323.887 416.672 322.778 414.752C321.711 412.789 321.178 410.421 321.178 407.648V388.704H326.234V407.264C326.234 410.379 327.002 412.64 328.538 414.048C330.117 415.456 332.229 416.16 334.874 416.16C337.861 416.16 340.314 415.179 342.234 413.216C344.154 411.253 345.114 408.331 345.114 404.448V388.704H350.17V420H345.242V414.688H344.346C343.663 416.181 342.49 417.547 340.826 418.784C339.162 419.979 336.73 420.576 333.53 420.576ZM373.998 420.896C371.31 420.896 368.835 420.256 366.574 418.976C364.312 417.696 362.52 415.84 361.198 413.408C359.875 410.976 359.214 408.096 359.214 404.768V403.936C359.214 400.608 359.875 397.749 361.198 395.36C362.52 392.928 364.291 391.072 366.51 389.792C368.771 388.469 371.267 387.808 373.998 387.808C376.174 387.808 378.008 388.107 379.502 388.704C381.038 389.259 382.275 389.984 383.214 390.88C384.152 391.733 384.878 392.651 385.39 393.632H386.286V375.2H391.342V420H386.414V414.816H385.518C384.664 416.395 383.342 417.803 381.55 419.04C379.758 420.277 377.24 420.896 373.998 420.896ZM375.342 416.416C378.584 416.416 381.208 415.392 383.214 413.344C385.262 411.253 386.286 408.352 386.286 404.64V404.064C386.286 400.352 385.262 397.472 383.214 395.424C381.208 393.333 378.584 392.288 375.342 392.288C372.142 392.288 369.496 393.333 367.406 395.424C365.358 397.472 364.334 400.352 364.334 404.064V404.64C364.334 408.352 365.358 411.253 367.406 413.344C369.496 415.392 372.142 416.416 375.342 416.416ZM433.799 420.896C430.471 420.896 427.527 420.213 424.967 418.848C422.449 417.44 420.465 415.392 419.015 412.704C417.607 410.016 416.903 406.688 416.903 402.72V392.48C416.903 386.549 418.481 382.048 421.639 378.976C424.796 375.861 429.041 374.304 434.375 374.304C439.665 374.304 443.697 375.755 446.471 378.656C449.244 381.557 450.631 385.44 450.631 390.304V390.624H445.319V390.176C445.319 388.043 444.935 386.144 444.167 384.48C443.399 382.816 442.204 381.515 440.583 380.576C438.961 379.595 436.892 379.104 434.375 379.104C430.577 379.104 427.612 380.277 425.479 382.624C423.345 384.928 422.279 388.171 422.279 392.352V402.848C422.279 407.029 423.345 410.293 425.479 412.64C427.612 414.944 430.599 416.096 434.439 416.096C438.193 416.096 440.945 415.029 442.695 412.896C444.487 410.763 445.382 407.925 445.382 404.384V403.296H431.815V398.688H450.631V420H445.767V415.136H444.871C444.401 416.075 443.74 416.992 442.887 417.888C442.033 418.784 440.881 419.509 439.431 420.064C437.98 420.619 436.103 420.896 433.799 420.896ZM460.433 420V375.2H477.585C480.273 375.2 482.662 375.733 484.753 376.8C486.886 377.824 488.571 379.296 489.809 381.216C491.046 383.136 491.665 385.461 491.665 388.192V389.024C491.665 391.712 491.025 394.037 489.745 396C488.507 397.92 486.822 399.392 484.689 400.416C482.555 401.44 480.187 401.952 477.585 401.952H465.809V420H460.433ZM465.809 397.088H477.009C479.867 397.088 482.129 396.384 483.793 394.976C485.457 393.525 486.289 391.499 486.289 388.896V388.256C486.289 385.653 485.457 383.648 483.793 382.24C482.171 380.789 479.91 380.064 477.009 380.064H465.809V397.088ZM515.062 420.896C511.734 420.896 508.833 420.299 506.358 419.104C503.883 417.909 501.963 416.139 500.598 413.792C499.233 411.403 498.55 408.48 498.55 405.024V375.2H503.862V405.088C503.862 408.757 504.843 411.509 506.806 413.344C508.769 415.179 511.521 416.096 515.062 416.096C518.603 416.096 521.355 415.179 523.318 413.344C525.281 411.509 526.262 408.757 526.262 405.088V375.2H531.638V405.024C531.638 408.48 530.955 411.403 529.59 413.792C528.225 416.139 526.283 417.909 523.766 419.104C521.291 420.299 518.39 420.896 515.062 420.896ZM570.733 420.896C566.85 420.896 563.565 420 560.877 418.208C558.231 416.416 556.631 413.579 556.077 409.696L560.877 408.608C561.218 410.656 561.858 412.277 562.797 413.472C563.735 414.624 564.887 415.456 566.253 415.968C567.661 416.437 569.154 416.672 570.733 416.672C573.079 416.672 574.935 416.203 576.301 415.264C577.666 414.325 578.349 413.067 578.349 411.488C578.349 409.867 577.687 408.736 576.365 408.096C575.085 407.413 573.314 406.859 571.053 406.432L568.429 405.984C566.423 405.643 564.589 405.109 562.925 404.384C561.261 403.659 559.938 402.677 558.957 401.44C557.975 400.203 557.485 398.645 557.485 396.768C557.485 393.952 558.573 391.755 560.749 390.176C562.925 388.597 565.805 387.808 569.389 387.808C572.93 387.808 575.789 388.619 577.965 390.24C580.183 391.819 581.613 394.059 582.253 396.96L577.517 398.176C577.133 395.915 576.215 394.336 574.765 393.44C573.314 392.501 571.522 392.032 569.389 392.032C567.255 392.032 565.57 392.437 564.333 393.248C563.095 394.016 562.477 395.168 562.477 396.704C562.477 398.197 563.053 399.307 564.205 400.032C565.399 400.715 566.978 401.227 568.941 401.568L571.565 402.016C573.783 402.4 575.767 402.933 577.517 403.616C579.309 404.256 580.717 405.195 581.741 406.432C582.807 407.669 583.341 409.291 583.341 411.296C583.341 414.368 582.189 416.736 579.885 418.4C577.623 420.064 574.573 420.896 570.733 420.896ZM603.843 420.576C601.581 420.576 599.491 420.085 597.571 419.104C595.693 418.123 594.2 416.672 593.091 414.752C592.024 412.789 591.491 410.421 591.491 407.648V388.704H596.547V407.264C596.547 410.379 597.315 412.64 598.851 414.048C600.429 415.456 602.541 416.16 605.187 416.16C608.173 416.16 610.627 415.179 612.547 413.216C614.467 411.253 615.427 408.331 615.427 404.448V388.704H620.483V420H615.555V414.688H614.659C613.976 416.181 612.803 417.547 611.139 418.784C609.475 419.979 607.043 420.576 603.843 420.576ZM631.062 432.8V388.704H635.99V393.888H636.886C637.697 392.309 638.998 390.901 640.79 389.664C642.625 388.427 645.163 387.808 648.406 387.808C651.094 387.808 653.547 388.469 655.766 389.792C658.027 391.072 659.819 392.907 661.142 395.296C662.507 397.685 663.19 400.565 663.19 403.936V404.768C663.19 408.096 662.529 410.976 661.206 413.408C659.883 415.84 658.091 417.696 655.83 418.976C653.611 420.256 651.137 420.896 648.406 420.896C646.23 420.896 644.374 420.597 642.838 420C641.345 419.445 640.129 418.72 639.19 417.824C638.251 416.928 637.526 416.011 637.014 415.072H636.118V432.8H631.062ZM647.062 416.416C650.305 416.416 652.929 415.392 654.934 413.344C656.982 411.253 658.006 408.352 658.006 404.64V404.064C658.006 400.352 656.982 397.472 654.934 395.424C652.929 393.333 650.305 392.288 647.062 392.288C643.862 392.288 641.217 393.333 639.126 395.424C637.078 397.472 636.054 400.352 636.054 404.064V404.64C636.054 408.352 637.078 411.253 639.126 413.344C641.217 415.392 643.862 416.416 647.062 416.416ZM672.25 432.8V388.704H677.178V393.888H678.074C678.884 392.309 680.186 390.901 681.978 389.664C683.812 388.427 686.351 387.808 689.594 387.808C692.282 387.808 694.735 388.469 696.954 389.792C699.215 391.072 701.007 392.907 702.33 395.296C703.695 397.685 704.378 400.565 704.378 403.936V404.768C704.378 408.096 703.716 410.976 702.394 413.408C701.071 415.84 699.279 417.696 697.018 418.976C694.799 420.256 692.324 420.896 689.594 420.896C687.418 420.896 685.562 420.597 684.026 420C682.532 419.445 681.316 418.72 680.378 417.824C679.439 416.928 678.714 416.011 678.202 415.072H677.306V432.8H672.25ZM688.25 416.416C691.492 416.416 694.116 415.392 696.122 413.344C698.17 411.253 699.194 408.352 699.194 404.64V404.064C699.194 400.352 698.17 397.472 696.122 395.424C694.116 393.333 691.492 392.288 688.25 392.288C685.05 392.288 682.404 393.333 680.314 395.424C678.266 397.472 677.242 400.352 677.242 404.064V404.64C677.242 408.352 678.266 411.253 680.314 413.344C682.404 415.392 685.05 416.416 688.25 416.416ZM727.901 420.896C724.744 420.896 721.949 420.235 719.517 418.912C717.128 417.589 715.25 415.733 713.885 413.344C712.562 410.912 711.901 408.053 711.901 404.768V403.936C711.901 400.693 712.562 397.856 713.885 395.424C715.25 392.992 717.128 391.115 719.517 389.792C721.949 388.469 724.744 387.808 727.901 387.808C731.058 387.808 733.832 388.469 736.221 389.792C738.653 391.115 740.53 392.992 741.853 395.424C743.218 397.856 743.901 400.693 743.901 403.936V404.768C743.901 408.053 743.218 410.912 741.853 413.344C740.53 415.733 738.653 417.589 736.221 418.912C733.832 420.235 731.058 420.896 727.901 420.896ZM727.901 416.352C731.229 416.352 733.874 415.307 735.837 413.216C737.842 411.083 738.845 408.224 738.845 404.64V404.064C738.845 400.48 737.842 397.643 735.837 395.552C733.874 393.419 731.229 392.352 727.901 392.352C724.616 392.352 721.97 393.419 719.965 395.552C717.96 397.643 716.957 400.48 716.957 404.064V404.64C716.957 408.224 717.96 411.083 719.965 413.216C721.97 415.307 724.616 416.352 727.901 416.352ZM753 420V388.704H757.928V392.544H758.824C759.378 391.179 760.232 390.176 761.384 389.536C762.536 388.896 764.05 388.576 765.928 388.576H769.64V393.184H765.608C763.346 393.184 761.512 393.824 760.104 395.104C758.738 396.341 758.056 398.283 758.056 400.928V420H753ZM788.645 420C786.853 420 785.466 419.509 784.485 418.528C783.546 417.547 783.077 416.203 783.077 414.496V393.12H773.669V388.704H783.077V377.568H788.133V388.704H798.373V393.12H788.133V413.728C788.133 415.008 788.751 415.648 789.989 415.648H796.965V420H788.645Z" fill="white"/>
<defs>
<linearGradient id="paint0_linear_1_6" x1="512" y1="0" x2="512" y2="512" gradientUnits="userSpaceOnUse">
<stop stop-color="#0094FF"/>
<stop offset="1" stop-color="#002ED0"/>
</linearGradient>
</defs>
</svg>
